<svg xmlns="http://www.w3.org/2000/svg" xmlns:xlink="http://www.w3.org/1999/xlink" viewBox="0 0 1600 1600" width="1600" height="1600" preserveAspectRatio="xMidYMid meet" style="width: 100%; height: 100%; transform: translate3d(0px, 0px, 0px); content-visibility: visible;"><defs><clipPath id="__lottie_element_2"><rect width="1600" height="1600" x="0" y="0"></rect></clipPath><clipPath id="__lottie_element_4"><path d="M0,0 L1600,0 L1600,1600 L0,1600z"></path></clipPath><linearGradient id="__lottie_element_26" spreadMethod="pad" gradientUnits="userSpaceOnUse" x1="75.08000183105469" y1="87.16899871826172" x2="-76.39199829101562" y2="-96.56400299072266"><stop offset="0%" stop-color="rgb(89,182,227)"></stop><stop offset="50%" stop-color="rgb(121,207,236)"></stop><stop offset="100%" stop-color="rgb(152,232,245)"></stop></linearGradient><linearGradient id="__lottie_element_27" spreadMethod="pad" gradientUnits="userSpaceOnUse" x1="70.81900024414062" y1="91.81700134277344" x2="-60.18199920654297" y2="-79.87699890136719"><stop offset="0%" stop-color="rgb(89,182,227)"></stop><stop offset="50%" stop-color="rgb(121,207,236)"></stop><stop offset="100%" stop-color="rgb(152,232,245)"></stop></linearGradient><linearGradient id="__lottie_element_31" spreadMethod="pad" gradientUnits="userSpaceOnUse" x1="18.232999801635742" y1="206.75100708007812" x2="-27.767000198364258" y2="-222.01600646972656"><stop offset="0%" stop-color="rgb(89,182,227)"></stop><stop offset="25%" stop-color="rgb(132,148,239)"></stop><stop offset="51%" stop-color="rgb(174,115,251)"></stop><stop offset="75%" stop-color="rgb(214,106,205)"></stop><stop offset="100%" stop-color="rgb(255,97,158)"></stop></linearGradient><linearGradient id="__lottie_element_35" spreadMethod="pad" gradientUnits="userSpaceOnUse" x1="59.37900161743164" y1="74.18299865722656" x2="-42.20199966430664" y2="-59.505001068115234"><stop offset="0%" stop-color="rgb(255,97,158)"></stop><stop offset="50%" stop-color="rgb(255,143,192)"></stop><stop offset="100%" stop-color="rgb(255,189,226)"></stop></linearGradient><linearGradient id="__lottie_element_36" spreadMethod="pad" gradientUnits="userSpaceOnUse" x1="50.27399826049805" y1="65.5250015258789" x2="-47.527000427246094" y2="-67.14399719238281"><stop offset="0%" stop-color="rgb(255,97,158)"></stop><stop offset="50%" stop-color="rgb(255,143,192)"></stop><stop offset="100%" stop-color="rgb(255,189,226)"></stop></linearGradient><linearGradient id="__lottie_element_40" spreadMethod="pad" gradientUnits="userSpaceOnUse" x1="-132.3520050048828" y1="168.39199829101562" x2="76.80400085449219" y2="-100.53500366210938"><stop offset="0%" stop-color="rgb(89,182,227)"></stop><stop offset="50%" stop-color="rgb(128,219,207)"></stop><stop offset="100%" stop-color="rgb(166,255,187)"></stop></linearGradient><linearGradient id="__lottie_element_44" spreadMethod="pad" gradientUnits="userSpaceOnUse" x1="106.5479965209961" y1="215.0679931640625" x2="-65.66999816894531" y2="-162.90199279785156"><stop offset="0%" stop-color="rgb(89,182,227)"></stop><stop offset="50%" stop-color="rgb(132,148,239)"></stop><stop offset="100%" stop-color="rgb(174,115,251)"></stop></linearGradient><linearGradient id="__lottie_element_48" spreadMethod="pad" gradientUnits="userSpaceOnUse" x1="-57.861000061035156" y1="56.42300033569336" x2="72.54000091552734" y2="-88.64900207519531"><stop offset="0%" stop-color="rgb(136,205,154)"></stop><stop offset="50%" stop-color="rgb(151,230,171)"></stop><stop offset="100%" stop-color="rgb(166,255,187)"></stop></linearGradient></defs><g clip-path="url(#__lottie_element_2)"><g clip-path="url(#__lottie_element_4)" transform="matrix(1,0,0,1,0,0)" opacity="1" style="display: block;"><g transform="matrix(1,0,0,1,65,80.25)" opacity="1" style="display: block;"><g opacity="1" transform="matrix(1,0,0,1,0,0)"><g opacity="1" transform="matrix(1,0,0,1,614.7730102539062,837.3930053710938)"><g opacity="1" transform="matrix(1,0,0,1,0,0)"><path fill="rgb(89,182,227)" fill-opacity="1" d=" M264.2080078125,-47.2130012512207 C264.2080078125,-47.2130012512207 264.2080078125,47.2130012512207 264.2080078125,47.2130012512207 C264.2080078125,47.2130012512207 -264.2080078125,47.2130012512207 -264.2080078125,47.2130012512207 C-264.2080078125,47.2130012512207 -264.2080078125,-47.2130012512207 -264.2080078125,-47.2130012512207 C-264.2080078125,-47.2130012512207 264.2080078125,-47.2130012512207 264.2080078125,-47.2130012512207z"></path></g></g></g><g opacity="1" transform="matrix(1.0419938564300537,0,0,1.0419938564300537,-44.9998779296875,-37.15118408203125)"><g opacity="1" transform="matrix(1,0,0,1,890.5819702148438,710.6320190429688)"><g opacity="1" transform="matrix(1,0,0,1,0,0)"><path fill="rgb(89,182,227)" fill-opacity="1" d=" M181.43499755859375,-9.642999649047852 C181.43499755859375,84.15399932861328 93.11399841308594,174.05099487304688 -11.60099983215332,174.05099487304688 C-105.39800262451172,174.05099487304688 -181.43499755859375,98.01399993896484 -181.43499755859375,4.216000080108643 C-181.43499755859375,-89.58000183105469 32.1609992980957,-113.15599822998047 93.53299713134766,-177.5189971923828 C92.62999725341797,-177.3730010986328 107.98500061035156,-158.41900634765625 135.95599365234375,-121.59300231933594 C160.16400146484375,-89.72100067138672 181.43499755859375,-52.38100051879883 181.43499755859375,-9.642999649047852z"></path></g></g></g><g opacity="1" transform="matrix(1.0138652324676514,0,0,1.0138652324676514,-8.81964111328125,-11.5826416015625)"><g opacity="1" transform="matrix(1,0,0,1,636.0980224609375,644.5809936523438)"><g opacity="1" transform="matrix(1,0,0,1,0,0)"><path fill="rgb(89,182,227)" fill-opacity="1" d=" M206.4669952392578,-72.53700256347656 C241.48800659179688,22.777999877929688 177.46299743652344,134.64599609375 64.01300048828125,174.54800415039062 C-49.4370002746582,214.4499969482422 -173.97900390625,179.5709991455078 -208.25100708007812,83.98400115966797 C-242.67100524902344,-12.015999794006348 -158.48899841308594,-136.4499969482422 -47.04199981689453,-175.93099975585938 C66.31800079345703,-216.08900451660156 169.68800354003906,-172.63600158691406 206.4669952392578,-72.53700256347656z"></path></g></g></g><g opacity="1" transform="matrix(1,0,0,1,0,0)"><g opacity="1" transform="matrix(1,0,0,1,393.4280090332031,751.697021484375)"><g opacity="1" transform="matrix(1,0,0,1,0,0)"><path fill="rgb(89,182,227)" fill-opacity="1" d=" M148.48500061035156,4.650000095367432 C148.48500061035156,63.757999420166016 17.600000381469727,132.83200073242188 -41.50899887084961,132.9080047607422 C-78.28500366210938,132.9550018310547 -104.9280014038086,113.052001953125 -129.94200134277344,86.81199645996094 C-145.46600341796875,70.5270004272461 -174.83200073242188,36.099998474121094 -191.38999938964844,9.979999542236328 C-221.8730010986328,-38.106998443603516 -104.2969970703125,-113.52300262451172 -14.196000099182129,-130.51600646972656 C84.69100189208984,-149.16600036621094 148.48500061035156,-54.45800018310547 148.48500061035156,4.650000095367432z"></path></g></g></g></g><g transform="matrix(1,0,0,1,0,0)" opacity="1" style="display: block;"><g opacity="1" transform="matrix(1,0,0,1,0,0)"><g opacity="1" transform="matrix(1,0,0,1,614.7730102539062,837.3930053710938)"><g opacity="1" transform="matrix(1,0,0,1,0,0)"><path fill="rgb(152,232,245)" fill-opacity="1" d=" M264.2080078125,-47.2130012512207 C264.2080078125,-47.2130012512207 264.2080078125,47.2130012512207 264.2080078125,47.2130012512207 C264.2080078125,47.2130012512207 -264.2080078125,47.2130012512207 -264.2080078125,47.2130012512207 C-264.2080078125,47.2130012512207 -264.2080078125,-47.2130012512207 -264.2080078125,-47.2130012512207 C-264.2080078125,-47.2130012512207 264.2080078125,-47.2130012512207 264.2080078125,-47.2130012512207z"></path></g></g></g><g opacity="1" transform="matrix(1.0419938564300537,0,0,1.0419938564300537,-44.9998779296875,-37.15118408203125)"><g opacity="1" transform="matrix(1,0,0,1,890.5819702148438,710.6320190429688)"><g opacity="1" transform="matrix(1,0,0,1,0,0)"><path fill="rgb(152,232,245)" fill-opacity="1" d=" M181.43499755859375,-9.642999649047852 C181.43499755859375,84.15399932861328 93.11399841308594,174.0500030517578 -11.60099983215332,174.0500030517578 C-105.39800262451172,174.0500030517578 -181.43499755859375,98.01300048828125 -181.43499755859375,4.216000080108643 C-181.43499755859375,-89.58100128173828 -89.49299621582031,-161.5240020751953 -1.2369999885559082,-172.47999572753906 C112.41799926757812,-186.58900451660156 181.43499755859375,-103.44000244140625 181.43499755859375,-9.642999649047852z"></path></g></g></g><g opacity="1" transform="matrix(1.0138652324676514,0,0,1.0138652324676514,-8.81964111328125,-11.5826416015625)"><g opacity="1" transform="matrix(1,0,0,1,636.0980224609375,644.5809936523438)"><g opacity="1" transform="matrix(1,0,0,1,0,0)"><path fill="rgb(152,232,245)" fill-opacity="1" d=" M206.4669952392578,-72.53700256347656 C241.48800659179688,22.777999877929688 177.46299743652344,134.64599609375 64.01300048828125,174.54800415039062 C-49.4370002746582,214.4499969482422 -173.97900390625,179.5709991455078 -208.25100708007812,83.98400115966797 C-242.67100524902344,-12.015999794006348 -158.48899841308594,-136.4499969482422 -47.04199981689453,-175.93099975585938 C66.31800079345703,-216.08900451660156 169.68800354003906,-172.63600158691406 206.4669952392578,-72.53700256347656z"></path></g></g></g><g opacity="1" transform="matrix(1,0,0,1,0,0)"><g opacity="1" transform="matrix(1,0,0,1,393.4280090332031,751.697021484375)"><g opacity="1" transform="matrix(1,0,0,1,0,0)"><path fill="rgb(152,232,245)" fill-opacity="1" d=" M148.48500061035156,4.650000095367432 C148.48500061035156,63.757999420166016 17.599000930786133,132.83200073242188 -41.50899887084961,132.9080047607422 C-101.36199951171875,132.98500061035156 -148.48500061035156,85.6500015258789 -148.48500061035156,23.433000564575195 C-148.48500061035156,-33.50199890136719 -104.2969970703125,-113.52300262451172 -14.196000099182129,-130.51600646972656 C84.69100189208984,-149.16600036621094 148.48500061035156,-54.45800018310547 148.48500061035156,4.650000095367432z"></path></g></g></g></g><g transform="matrix(1,0,0,1,1109.468994140625,951.5989990234375)" opacity="1" style="display: block;"><g opacity="1" transform="matrix(1,0,0,1,0,0)"><path stroke-linecap="round" stroke-linejoin="miter" fill-opacity="0" stroke-miterlimit="10" stroke="rgb(15,51,54)" stroke-opacity="1" stroke-width="2" d=" M110.822998046875,162.72799682617188 C126.98400115966797,100.08000183105469 190.80299377441406,-147.31300354003906 190.80299377441406,-147.31300354003906 C194.68299865722656,-162.3520050048828 183.32699584960938,-177.00900268554688 167.7949981689453,-177.00900268554688 C167.7949981689453,-177.00900268554688 -191.5679931640625,-177.00900268554688 -191.5679931640625,-177.00900268554688"></path></g></g><g style="display: none;"><g><path stroke-linecap="round" stroke-linejoin="miter" fill-opacity="0" stroke-miterlimit="10"></path></g></g><g transform="matrix(1,0,0,1,639.60400390625,1021.8720092773438)" opacity="1" style="display: block;"><g opacity="1" transform="matrix(1,0,0,1,0,0)"><path stroke-linecap="round" stroke-linejoin="miter" fill-opacity="0" stroke-miterlimit="10" stroke="rgb(15,51,54)" stroke-opacity="1" stroke-width="2" d=" M-43.12799835205078,167.1840057373047 C-27.85099983215332,107.96499633789062 45.87799835205078,-177.84500122070312 45.87799835205078,-177.84500122070312"></path></g></g><g transform="matrix(1,0,0,1,392.7909851074219,977.2119750976562)" opacity="1" style="display: block;"><g opacity="1" transform="matrix(1,0,0,1,0,0)"><path stroke-linecap="round" stroke-linejoin="miter" fill-opacity="0" stroke-miterlimit="10" stroke="rgb(15,51,54)" stroke-opacity="1" stroke-width="2" d=" M-95.75599670410156,133.18499755859375 C-65.05799865722656,133.18499755859375 11.862000465393066,133.18499755859375 11.862000465393066,133.18499755859375 C28.117000579833984,133.18499755859375 42.31399917602539,122.18599700927734 46.374000549316406,106.44599914550781 C46.374000549316406,106.44599914550781 108.19000244140625,-133.18499755859375 108.19000244140625,-133.18499755859375"></path></g></g><g transform="matrix(1,0,0,1,1050.2650146484375,535.3499755859375)" opacity="1" style="display: block;"><g opacity="1" transform="matrix(1,0,0,1,0,0)"><path stroke-linecap="round" stroke-linejoin="miter" fill-opacity="0" stroke-miterlimit="10" stroke="rgb(15,51,54)" stroke-opacity="1" stroke-width="2" d=" M155.55799865722656,-134.04600524902344 C109.6259994506836,-134.04600524902344 -69.4209976196289,-134.04600524902344 -69.4209976196289,-134.04600524902344 C-85.6760025024414,-134.04600524902344 -99.87300109863281,-123.0469970703125 -103.93299865722656,-107.30699920654297 C-103.93299865722656,-107.30699920654297 -166.1929931640625,134.04600524902344 -166.1929931640625,134.04600524902344"></path></g></g><g transform="matrix(1,0,0,1,693.1409912109375,456.14599609375)" opacity="1" style="display: block;"><g opacity="1" transform="matrix(1,0,0,1,0,0)"><path stroke-linecap="round" stroke-linejoin="miter" fill-opacity="0" stroke-miterlimit="10" stroke="rgb(15,51,54)" stroke-opacity="1" stroke-width="2" d=" M26.71299934387207,-112.78700256347656 C16.906999588012695,-72.98100280761719 -23.81800079345703,92.33200073242188 -23.81800079345703,92.33200073242188"></path></g></g><g style="display: none;"><g><path stroke-linecap="round" stroke-linejoin="miter" fill-opacity="0" stroke-miterlimit="10"></path></g></g><g transform="matrix(1,0,0,1,355.05999755859375,549.5499877929688)" opacity="1" style="display: block;"><g opacity="1" transform="matrix(1,0,0,1,0,0)"><path stroke-linecap="round" stroke-linejoin="miter" fill-opacity="0" stroke-miterlimit="10" stroke="rgb(15,51,54)" stroke-opacity="1" stroke-width="2" d=" M-44.51900100708008,-137.07400512695312 C-56.935001373291016,-88.94200134277344 -110.14700317382812,117.33399963378906 -110.14700317382812,117.33399963378906 C-114.0270004272461,132.3730010986328 -102.6709976196289,147.02999877929688 -87.13899993896484,147.02999877929688 C-87.13899993896484,147.02999877929688 110.91300201416016,147.02999877929688 110.91300201416016,147.02999877929688"></path></g></g><g style="display: none;"><g><path stroke-linecap="round" stroke-linejoin="miter" fill-opacity="0" stroke-miterlimit="10"></path></g></g><g transform="matrix(1,0,0,1,0,0)" opacity="1" style="display: block;"><g opacity="1" transform="matrix(1,0,0,1,465.97198486328125,696.5809936523438)"><path fill="rgb(255,255,255)" fill-opacity="1" d=" M-8.189000129699707,0 C-9.149999618530273,4.5229997634887695 -6.263999938964844,8.189000129699707 -1.7410000562667847,8.189000129699707 C2.7820000648498535,8.189000129699707 7.228000164031982,4.5229997634887695 8.189000129699707,0 C9.149999618530273,-4.5229997634887695 6.263999938964844,-8.189000129699707 1.7410000562667847,-8.189000129699707 C-2.7820000648498535,-8.189000129699707 -7.228000164031982,-4.5229997634887695 -8.189000129699707,0z"></path></g></g><g transform="matrix(1,0,0,1,0,0)" opacity="1" style="display: block;"><g opacity="1" transform="matrix(1,0,0,1,884.0709838867188,668.3779907226562)"><path fill="rgb(255,255,255)" fill-opacity="1" d=" M-8.189000129699707,0 C-9.149999618530273,4.5229997634887695 -6.263999938964844,8.189000129699707 -1.7410000562667847,8.189000129699707 C2.7820000648498535,8.189000129699707 7.228000164031982,4.5229997634887695 8.189000129699707,0 C9.149999618530273,-4.5229997634887695 6.263999938964844,-8.189000129699707 1.7410000562667847,-8.189000129699707 C-2.7820000648498535,-8.189000129699707 -7.228000164031982,-4.5229997634887695 -8.189000129699707,0z"></path></g></g><g transform="matrix(1,0,0,1,0,0)" opacity="1" style="display: block;"><g opacity="1" transform="matrix(1,0,0,1,919,774.5900268554688)"><path fill="rgb(255,255,255)" fill-opacity="1" d=" M-8.189000129699707,0 C-9.149999618530273,4.5229997634887695 -6.263999938964844,8.189000129699707 -1.7410000562667847,8.189000129699707 C2.7820000648498535,8.189000129699707 7.228000164031982,4.5229997634887695 8.189000129699707,0 C9.149999618530273,-4.5229997634887695 6.263999938964844,-8.189000129699707 1.7410000562667847,-8.189000129699707 C-2.7820000648498535,-8.189000129699707 -7.228000164031982,-4.5229997634887695 -8.189000129699707,0z"></path></g></g><g transform="matrix(1,0,0,1,0,0)" opacity="1" style="display: block;"><g opacity="1" transform="matrix(1,0,0,1,500.9809875488281,844.0269775390625)"><path fill="rgb(255,255,255)" fill-opacity="1" d=" M-8.189000129699707,0 C-9.149999618530273,4.5229997634887695 -6.263999938964844,8.189000129699707 -1.7410000562667847,8.189000129699707 C2.7820000648498535,8.189000129699707 7.228000164031982,4.5229997634887695 8.189000129699707,0 C9.149999618530273,-4.5229997634887695 6.263999938964844,-8.189000129699707 1.7410000562667847,-8.189000129699707 C-2.7820000648498535,-8.189000129699707 -7.228000164031982,-4.5229997634887695 -8.189000129699707,0z"></path></g></g><g transform="matrix(1,0,0,1,0,0)" opacity="1" style="display: block;"><g opacity="1" transform="matrix(1,0,0,1,685.4810180664062,844.0269775390625)"><path fill="rgb(255,255,255)" fill-opacity="1" d=" M-8.189000129699707,0 C-9.149999618530273,4.5229997634887695 -6.263999938964844,8.189000129699707 -1.7410000562667847,8.189000129699707 C2.7820000648498535,8.189000129699707 7.228000164031982,4.5229997634887695 8.189000129699707,0 C9.149999618530273,-4.5229997634887695 6.263999938964844,-8.189000129699707 1.7410000562667847,-8.189000129699707 C-2.7820000648498535,-8.189000129699707 -7.228000164031982,-4.5229997634887695 -8.189000129699707,0z"></path></g></g><g style="display: none;"><g><path></path></g></g><g transform="matrix(0,0,0,0,500.9809875488281,844.0269775390625)" opacity="1" style="display: block;"><g opacity="0.5" transform="matrix(1,0,0,1,500.9809875488281,844.0269775390625)"><path fill="rgb(255,255,255)" fill-opacity="1" d=" M-13.491000175476074,0 C-15.074999809265137,7.451000213623047 -10.319000244140625,13.491000175476074 -2.868000030517578,13.491000175476074 C4.583000183105469,13.491000175476074 11.906999588012695,7.451000213623047 13.491000175476074,0 C15.074999809265137,-7.451000213623047 10.319000244140625,-13.491000175476074 2.868000030517578,-13.491000175476074 C-4.583000183105469,-13.491000175476074 -11.906999588012695,-7.451000213623047 -13.491000175476074,0z"></path></g></g><g transform="matrix(0,0,0,0,465.97198486328125,696.5809936523438)" opacity="1" style="display: block;"><g opacity="0.5" transform="matrix(1,0,0,1,465.97198486328125,696.5809936523438)"><path fill="rgb(255,255,255)" fill-opacity="1" d=" M-23.812000274658203,0 C-26.60700035095215,13.151000022888184 -18.211999893188477,23.812000274658203 -5.060999870300293,23.812000274658203 C8.09000015258789,23.812000274658203 21.017000198364258,13.151000022888184 23.812000274658203,0 C26.60700035095215,-13.151000022888184 18.211999893188477,-23.812000274658203 5.060999870300293,-23.812000274658203 C-8.09000015258789,-23.812000274658203 -21.017000198364258,-13.151000022888184 -23.812000274658203,0z"></path></g></g><g style="display: none;"><g><path></path></g></g><g style="display: none;"><g><path></path></g></g><g style="display: none;"><g><path></path></g></g><g style="display: none;"><g><path></path></g></g><g style="display: none;"><g><path></path></g></g><g style="display: none;"><g><path></path></g></g><g transform="matrix(1,0,0,1,0,0)" opacity="1" style="display: block;"><g opacity="1" transform="matrix(1,0,0,1,667.5560302734375,550.0650024414062)"><path fill="rgb(255,255,255)" fill-opacity="1" d=" M-8.189000129699707,0 C-9.149999618530273,4.5229997634887695 -6.263999938964844,8.189000129699707 -1.7410000562667847,8.189000129699707 C2.7820000648498535,8.189000129699707 7.228000164031982,4.5229997634887695 8.189000129699707,0 C9.149999618530273,-4.5229997634887695 6.263999938964844,-8.189000129699707 1.7410000562667847,-8.189000129699707 C-2.7820000648498535,-8.189000129699707 -7.228000164031982,-4.5229997634887695 -8.189000129699707,0z"></path></g></g><g transform="matrix(1,0,0,1,-5.5616455078125,0.0009765625)" opacity="1" style="display: block;"><g opacity="1" transform="matrix(1,0,0,1,0,0)"><g opacity="1" transform="matrix(1,0,0,1,295.1960144042969,1107.0989990234375)"><path fill="rgb(136,205,154)" fill-opacity="1" d=" M37.53905487060547,-69.30897521972656 C71.76005554199219,-55.40997314453125 80.61805725097656,-13.591972351074219 57.323055267333984,24.095027923583984 C34.028053283691406,61.78202819824219 -12.598944664001465,81.06602478027344 -46.8199462890625,67.16703033447266 C-53.23694610595703,64.56102752685547 -55.44900131225586,63.9370002746582 -55.44900131225586,63.9370002746582 C-55.44900131225586,63.9370002746582 -84.16300201416016,5.066999912261963 -65.23600006103516,-25.55299949645996 C-46.12900161743164,-56.4640007019043 29.702999114990234,-72.36299896240234 29.702999114990234,-72.36299896240234 C29.702999114990234,-72.36299896240234 31.387054443359375,-71.80797576904297 37.53905487060547,-69.30897521972656z"></path></g><g opacity="1" transform="matrix(1,0,0,1,279.4599914550781,1101.6490478515625)"><path fill="url(#__lottie_element_48)" fill-opacity="1" d=" M42.18000030517578,-68.23799896240234 C76.4010009765625,-54.3390007019043 85.25800323486328,-12.520999908447266 61.9630012512207,25.166000366210938 C38.667999267578125,62.85300064086914 -7.959000110626221,82.13700103759766 -42.18000030517578,68.23799896240234 C-76.4010009765625,54.3390007019043 -85.25800323486328,12.520999908447266 -61.9630012512207,-25.166000366210938 C-38.667999267578125,-62.85300064086914 7.959000110626221,-82.13700103759766 42.18000030517578,-68.23799896240234z"></path></g><g opacity="1" transform="matrix(1,0,0,1,295.85198974609375,1103.906005859375)"><path stroke-linecap="round" stroke-linejoin="round" fill-opacity="0" stroke="rgb(15,51,54)" stroke-opacity="1" stroke-width="2" d=" M25.78700065612793,-70.49400329589844 C60.007999420166016,-56.595001220703125 68.86599731445312,-14.777000427246094 45.57099914550781,22.90999984741211 C22.275999069213867,60.59700012207031 -24.35099983215332,79.88099670410156 -58.571998596191406,65.98200225830078"></path></g></g><g opacity="1" transform="matrix(1,0,0,1,277.1820068359375,1101.6490478515625)"><g opacity="1" transform="matrix(1,0,0,1,0,0)"><path fill="rgb(255,255,255)" fill-opacity="1" d=" M3.384000062942505,18.048999786376953 C0.5040000081062317,21.319000244140625 -2.505000114440918,23.73699951171875 -5.64300012588501,25.304000854492188 C-8.781000137329102,26.871000289916992 -12.244000434875488,27.684999465942383 -16.033000946044922,27.74799919128418 C-22.14299964904785,27.849000930786133 -26.4060001373291,26.270000457763672 -28.825000762939453,23.01099967956543 C-31.2450008392334,19.753000259399414 -31.70199966430664,14.888999938964844 -30.195999145507812,8.420000076293945 C-28.054000854492188,-0.7820000052452087 -23.56100082397461,-8.54800033569336 -16.71500015258789,-14.875 C-9.869999885559082,-21.20199966430664 -2.502000093460083,-24.430999755859375 5.385000228881836,-24.56100082397461 C8.477999687194824,-24.61199951171875 11.017000198364258,-24.020999908447266 13.003000259399414,-22.788000106811523 C14.98799991607666,-21.55500030517578 16.423999786376953,-19.698999404907227 17.312000274658203,-17.22100067138672 C17.312000274658203,-17.22100067138672 21.702999114990234,-22.93199920654297 21.702999114990234,-22.93199920654297 C21.702999114990234,-22.93199920654297 32.027000427246094,-23.10300064086914 32.027000427246094,-23.10300064086914 C32.027000427246094,-23.10300064086914 15.461999893188477,11.57800006866455 15.461999893188477,11.57800006866455 C15.248000144958496,12.003999710083008 15.048999786376953,12.439000129699707 14.869999885559082,12.881999969482422 C14.689000129699707,13.32699966430664 14.567999839782715,13.684000015258789 14.505000114440918,13.95300006866455 C14.190999984741211,15.300999641418457 14.420000076293945,16.304000854492188 15.190999984741211,16.961999893188477 C15.961999893188477,17.621000289916992 17.256000518798828,17.934999465942383 19.073999404907227,17.905000686645508 C20.582000732421875,17.8799991607666 22.2450008392334,17.4689998626709 24.069000244140625,16.67099952697754 C25.892000198364258,15.87399959564209 27.68000030517578,14.770999908447266 29.433000564575195,13.361000061035156 C33.474998474121094,10.22599983215332 36.83599853515625,6.584000110626221 39.51599884033203,2.434999942779541 C42.19499969482422,-1.7130000591278076 44.108001708984375,-6.251999855041504 45.255001068115234,-11.180999755859375 C47.40599822998047,-20.42300033569336 45.58700180053711,-27.95800018310547 39.79999923706055,-33.78900146484375 C34.012001037597656,-39.619998931884766 25.452999114990234,-42.441001892089844 14.125,-42.25400161743164 C8.67300033569336,-42.16400146484375 3.446000099182129,-41.42499923706055 -1.555999994277954,-40.03900146484375 C-6.559000015258789,-38.652000427246094 -11.27400016784668,-36.637001037597656 -15.70199966430664,-33.99399948120117 C-23.29800033569336,-29.496000289916992 -29.6299991607666,-23.924999237060547 -34.70100021362305,-17.281999588012695 C-39.770999908447266,-10.638999938964844 -43.220001220703125,-3.390000104904175 -45.04800033569336,4.465000152587891 C-47.79899978637695,16.285999298095703 -45.994998931884766,25.663999557495117 -39.63600158691406,32.59700012207031 C-33.2760009765625,39.529998779296875 -23.408000946044922,42.887001037597656 -10.029999732971191,42.66600036621094 C-3.7660000324249268,42.5620002746582 2.572999954223633,41.518001556396484 8.984999656677246,39.53300094604492 C15.39799976348877,37.547000885009766 21.591999053955078,34.72100067138672 27.56800079345703,31.05500030517578 C27.56800079345703,31.05500030517578 30.750999450683594,37.73400115966797 30.750999450683594,37.73400115966797 C23.80500030517578,42.25899887084961 16.756999969482422,45.69499969482422 9.605999946594238,48.03799819946289 C2.4549999237060547,50.380001068115234 -4.7170000076293945,51.61199951171875 -11.909000396728516,51.73099899291992 C-19.332000732421875,51.854000091552734 -25.940000534057617,51.03099822998047 -31.729999542236328,49.266998291015625 C-37.520999908447266,47.50199890136719 -42.40700149536133,44.83100128173828 -46.38800048828125,41.25299835205078 C-51.297000885009766,36.69300079345703 -54.53200149536133,31.395999908447266 -56.09299850463867,25.361000061035156 C-57.654998779296875,19.32699966430664 -57.53799819946289,12.458999633789062 -55.74599838256836,4.756999969482422 C-54.249000549316406,-1.6729999780654907 -51.80799865722656,-7.822000026702881 -48.41999816894531,-13.689000129699707 C-45.03200149536133,-19.555999755859375 -40.81100082397461,-24.90999984741211 -35.75600051879883,-29.75 C-28.41200065612793,-36.8129997253418 -20.302000045776367,-42.202999114990234 -11.425999641418457,-45.91699981689453 C-2.549999952316284,-49.63100051879883 6.816999912261963,-51.56999969482422 16.677000045776367,-51.733001708984375 C23.209999084472656,-51.840999603271484 29.145000457763672,-51.066001892089844 34.47999954223633,-49.409000396728516 C39.81399917602539,-47.750999450683594 44.23500061035156,-45.36000061035156 47.744998931884766,-42.23400115966797 C52.02299880981445,-38.277000427246094 54.845001220703125,-33.72999954223633 56.21200180053711,-28.5939998626709 C57.57699966430664,-23.457000732421875 57.50299835205078,-17.63599967956543 55.98899841308594,-11.128999710083008 C54.5099983215332,-4.775000095367432 51.87900161743164,1.1089999675750732 48.09700012207031,6.521999835968018 C44.31399917602539,11.9350004196167 39.60200119018555,16.586999893188477 33.95899963378906,20.47800064086914 C30.749000549316406,22.68000030517578 27.41900062561035,24.375 23.96500015258789,25.562999725341797 C20.51099967956543,26.75200080871582 17.062000274658203,27.374000549316406 13.621000289916992,27.430999755859375 C9.522000312805176,27.499000549316406 6.627999782562256,26.740999221801758 4.935999870300293,25.158000946044922 C3.24399995803833,23.575000762939453 2.7260000705718994,21.204999923706055 3.384000062942505,18.048999786376953z M12.03600025177002,-6.71999979019165 C12.258999824523926,-9.831000328063965 11.701000213623047,-12.189000129699707 10.362000465393066,-13.79800033569336 C9.022000312805176,-15.406000137329102 6.940000057220459,-16.187000274658203 4.118000030517578,-16.139999389648438 C-0.289000004529953,-16.066999435424805 -4.672999858856201,-13.616000175476074 -9.031999588012695,-8.788000106811523 C-13.390999794006348,-3.9590001106262207 -16.350000381469727,1.8049999475479126 -17.909000396728516,8.505000114440918 C-18.733999252319336,12.04800033569336 -18.57900047302246,14.729999542236328 -17.44300079345703,16.552000045776367 C-16.30699920654297,18.375 -14.25100040435791,19.26099967956543 -11.27299976348877,19.211999893188477 C-8.064000129699707,19.159000396728516 -4.853000164031982,17.89699935913086 -1.6390000581741333,15.428000450134277 C1.5740000009536743,12.958000183105469 4.114999771118164,9.772000312805176 5.98799991607666,5.866000175476074 C5.98799991607666,5.866000175476074 12.03600025177002,-6.71999979019165 12.03600025177002,-6.71999979019165z"></path></g></g></g><g transform="matrix(1,0,0,1,0.996337890625,-4.1610107421875)" opacity="1" style="display: block;"><g opacity="1" transform="matrix(1,0,0,1,336.28399658203125,344.5870056152344)"><path fill="rgb(15,51,54)" fill-opacity="1" d=" M-155.93600463867188,180.63999938964844 C-155.93600463867188,180.63999938964844 70.78500366210938,180.63999938964844 70.78500366210938,180.63999938964844 C79.03900146484375,180.63999938964844 87.44300079345703,173.9499969482422 89.55799865722656,165.6959991455078 C89.55799865722656,165.6959991455078 172.8780059814453,-159.49600219726562 172.8780059814453,-159.49600219726562 C173.8520050048828,-163.2949981689453 173.322998046875,-166.76400756835938 171.66299438476562,-169.4010009765625 C169.7169952392578,-172.49200439453125 163.22300720214844,-180.63999938964844 163.22300720214844,-180.63999938964844 C163.22300720214844,-180.63999938964844 -64.95800018310547,-174.4409942626953 -64.95800018310547,-174.4409942626953 C-73.21199798583984,-174.4409942626953 -81.61699676513672,-167.75100708007812 -83.73200225830078,-159.4969940185547 C-83.73200225830078,-159.4969940185547 -173.36500549316406,165.66299438476562 -173.36500549316406,165.66299438476562 C-173.36500549316406,165.66299438476562 -167.13999938964844,174.66600036621094 -164.39500427246094,177.4040069580078 C-162.36399841308594,179.42999267578125 -159.4459991455078,180.63999938964844 -155.93600463867188,180.63999938964844z"></path></g><g opacity="1" transform="matrix(1,0,0,1,331.4519958496094,337.41900634765625)"><path fill="url(#__lottie_element_44)" fill-opacity="1" d=" M-158.85000610351562,177.5399932861328 C-158.85000610351562,177.5399932861328 67.87200164794922,177.54100036621094 67.87200164794922,177.54100036621094 C76.1259994506836,177.54100036621094 84.52999877929688,170.85000610351562 86.6449966430664,162.5959930419922 C86.6449966430664,162.5959930419922 169.96499633789062,-162.5959930419922 169.96499633789062,-162.5959930419922 C172.0800018310547,-170.85000610351562 167.10400390625,-177.5399932861328 158.85000610351562,-177.5399932861328 C158.85000610351562,-177.5399932861328 -67.87200164794922,-177.54100036621094 -67.87200164794922,-177.54100036621094 C-76.1259994506836,-177.54100036621094 -84.52999877929688,-170.85000610351562 -86.6449966430664,-162.5959930419922 C-86.6449966430664,-162.5959930419922 -169.96499633789062,162.5959930419922 -169.96499633789062,162.5959930419922 C-172.0800018310547,170.85000610351562 -167.10400390625,177.5399932861328 -158.85000610351562,177.5399932861328z"></path></g><g opacity="1" transform="matrix(1,0,0,1,293.3070068359375,486.29400634765625)"><path fill="rgb(15,51,54)" fill-opacity="1" d=" M-11.446999549865723,0 C-13.067000389099121,6.322000026702881 -9.255000114440918,11.446999549865723 -2.933000087738037,11.446999549865723 C3.3889999389648438,11.446999549865723 9.82699966430664,6.322000026702881 11.446999549865723,0 C13.067000389099121,-6.322000026702881 9.255000114440918,-11.446999549865723 2.933000087738037,-11.446999549865723 C-3.3889999389648438,-11.446999549865723 -9.82699966430664,-6.322000026702881 -11.446999549865723,0z"></path></g><g opacity="1" transform="matrix(1,0,0,1,331.4519958496094,337.41900634765625)"><path stroke-linecap="butt" stroke-linejoin="miter" fill-opacity="0" stroke-miterlimit="10" stroke="rgb(15,51,54)" stroke-opacity="1" stroke-width="4" d=" M-158.85000610351562,177.5399932861328 C-158.85000610351562,177.5399932861328 67.87200164794922,177.54100036621094 67.87200164794922,177.54100036621094 C76.1259994506836,177.54100036621094 84.52999877929688,170.85000610351562 86.6449966430664,162.5959930419922 C86.6449966430664,162.5959930419922 169.96499633789062,-162.5959930419922 169.96499633789062,-162.5959930419922 C172.0800018310547,-170.85000610351562 167.10400390625,-177.5399932861328 158.85000610351562,-177.5399932861328 C158.85000610351562,-177.5399932861328 -67.87200164794922,-177.54100036621094 -67.87200164794922,-177.54100036621094 C-76.1259994506836,-177.54100036621094 -84.52999877929688,-170.85000610351562 -86.6449966430664,-162.5959930419922 C-86.6449966430664,-162.5959930419922 -169.96499633789062,162.5959930419922 -169.96499633789062,162.5959930419922 C-172.0800018310547,170.85000610351562 -167.10400390625,177.5399932861328 -158.85000610351562,177.5399932861328z"></path></g></g><g transform="matrix(1,0,0,1,0.31756591796875,0.0009765625)" opacity="1" style="display: block;"><g opacity="1" transform="matrix(1,0,0,1,1216.2779541015625,412.9419860839844)"><path fill="rgb(15,51,54)" fill-opacity="1" d=" M105.05599975585938,-124.33699798583984 C105.05599975585938,-124.33699798583984 105.05599975585938,-124.33699798583984 105.05599975585938,-124.33699798583984 C105.05599975585938,-124.33699798583984 105.05599975585938,-124.33699798583984 105.05599975585938,-124.33699798583984 C104.57499694824219,-124.87799835205078 90.81999969482422,-138.06199645996094 90.81999969482422,-138.06199645996094 C90.81999969482422,-138.06199645996094 83.6729965209961,-128.7519989013672 83.6729965209961,-128.7519989013672 C83.6729965209961,-128.7519989013672 -23.785999298095703,-128.6020050048828 -23.785999298095703,-128.6020050048828 C-29.76300048828125,-128.6020050048828 -34.987998962402344,-124.5469970703125 -36.459999084472656,-118.7509994506836 C-36.459999084472656,-118.7509994506836 -93.31199645996094,101.60199737548828 -93.31199645996094,101.60199737548828 C-93.31199645996094,101.60199737548828 -108.35900115966797,121.18299865722656 -108.35900115966797,121.18299865722656 C-108.35900115966797,121.18299865722656 -94.8740005493164,134.3979949951172 -94.8740005493164,134.3979949951172 C-94.8740005493164,134.3979949951172 -94.8740005493164,134.3979949951172 -94.8740005493164,134.3979949951172 C-92.53099822998047,136.6510009765625 -89.3479995727539,138.06199645996094 -85.77400207519531,138.06199645996094 C-85.77400207519531,138.06199645996094 33.24700164794922,137.91200256347656 33.24700164794922,137.91200256347656 C39.2239990234375,137.91200256347656 44.44900131225586,133.85699462890625 45.92100143432617,128.06100463867188 C45.92100143432617,128.06100463867188 107.93900299072266,-112.35399627685547 107.93900299072266,-112.35399627685547 C109.08000183105469,-116.79900360107422 107.81900024414062,-121.21399688720703 105.05599975585938,-124.33699798583984z"></path></g><g opacity="1" transform="matrix(1,0,0,1,1206.35205078125,403.3919982910156)"><path fill="rgb(255,255,255)" fill-opacity="1" d=" M28.516000747680664,133.2570037841797 C28.516000747680664,133.2570037841797 -90.50499725341797,133.40699768066406 -90.50499725341797,133.40699768066406 C-99.09400177001953,133.40699768066406 -105.37100219726562,125.3280029296875 -103.23899841308594,117.00900268554688 C-103.23899841308594,117.00900268554688 -41.189998626708984,-123.40599822998047 -41.189998626708984,-123.40599822998047 C-39.6879997253418,-129.20199584960938 -34.49300003051758,-133.2270050048828 -28.516000747680664,-133.2570037841797 C-28.516000747680664,-133.2570037841797 90.50499725341797,-133.40699768066406 90.50499725341797,-133.40699768066406 C99.09400177001953,-133.40699768066406 105.37100219726562,-125.3280029296875 103.23899841308594,-117.00900268554688 C103.23899841308594,-117.00900268554688 41.220001220703125,123.40599822998047 41.220001220703125,123.40599822998047 C39.71799850463867,129.20199584960938 34.49300003051758,133.2570037841797 28.516000747680664,133.2570037841797z"></path></g><g opacity="1" transform="matrix(1,0,0,1,1206.35205078125,403.3919982910156)"><path fill="url(#__lottie_element_40)" fill-opacity="1" d=" M28.516000747680664,133.2570037841797 C28.516000747680664,133.2570037841797 -90.50499725341797,133.40699768066406 -90.50499725341797,133.40699768066406 C-99.09400177001953,133.40699768066406 -105.37100219726562,125.3280029296875 -103.23899841308594,117.00900268554688 C-103.23899841308594,117.00900268554688 -41.189998626708984,-123.40599822998047 -41.189998626708984,-123.40599822998047 C-39.6879997253418,-129.20199584960938 -34.49300003051758,-133.2270050048828 -28.516000747680664,-133.2570037841797 C-28.516000747680664,-133.2570037841797 90.50499725341797,-133.40699768066406 90.50499725341797,-133.40699768066406 C99.09400177001953,-133.40699768066406 105.37100219726562,-125.3280029296875 103.23899841308594,-117.00900268554688 C103.23899841308594,-117.00900268554688 41.220001220703125,123.40599822998047 41.220001220703125,123.40599822998047 C39.71799850463867,129.20199584960938 34.49300003051758,133.2570037841797 28.516000747680664,133.2570037841797z"></path></g><g opacity="1" transform="matrix(1,0,0,1,1297.1949462890625,374.13299560546875)"><path fill="rgb(255,255,255)" fill-opacity="1" d=" M-3.8529999256134033,14.991999626159668 C-3.8529999256134033,14.991999626159668 -3.8529999256134033,14.991999626159668 -3.8529999256134033,14.991999626159668 C-5.492000102996826,13.401000022888184 -6.372000217437744,10.432000160217285 -5.848999977111816,8.317999839782715 C-5.848999977111816,8.317999839782715 -0.07699999958276749,-14.055999755859375 -0.07699999958276749,-14.055999755859375 C0.4690000116825104,-16.170000076293945 2.2269999980926514,-16.572999954223633 3.865999937057495,-14.982000350952148 C3.865999937057495,-14.982000350952148 3.865999937057495,-14.982000350952148 3.865999937057495,-14.982000350952148 C5.505000114440918,-13.390999794006348 6.382999897003174,-10.39799976348877 5.836999893188477,-8.307999610900879 C5.836999893188477,-8.307999610900879 0.08900000154972076,14.017999649047852 0.08900000154972076,14.017999649047852 C-0.4339999854564667,16.1560001373291 -2.2139999866485596,16.58300018310547 -3.8529999256134033,14.991999626159668z"></path></g></g><g transform="matrix(1,0,0,1,1.39019775390625,-5.8023681640625)" opacity="1" style="display: block;"><g opacity="1" transform="matrix(1,0,0,1,730.6209716796875,316.10699462890625)"><path fill="url(#__lottie_element_35)" fill-opacity="1" d=" M85.11742401123047,-63.07666778564453 C85.11742401123047,-63.07666778564453 85.12542724609375,-63.08766555786133 85.12542724609375,-63.08766555786133 C85.12542724609375,-63.08766555786133 74.91300201416016,-74.6259994506836 74.91300201416016,-74.6259994506836 C74.91300201416016,-74.6259994506836 -88.77400207519531,58.19599914550781 -88.77400207519531,58.19599914550781 C-88.77400207519531,58.19599914550781 -79.14057922363281,69.04533386230469 -79.14057922363281,69.04533386230469 C-79.14057922363281,69.04533386230469 -79.13957214355469,69.04133605957031 -79.13957214355469,69.04133605957031 C-77.6435775756836,70.9913330078125 -75.22857666015625,72.19833374023438 -72.22857666015625,72.19833374023438 C-72.22857666015625,72.19833374023438 43.98042297363281,72.19833374023438 43.98042297363281,72.19833374023438 C50.04442596435547,72.19833374023438 56.1854248046875,67.28233337402344 57.697425842285156,61.21833419799805 C57.697425842285156,61.21833419799805 86.67142486572266,-54.990665435791016 86.67142486572266,-54.990665435791016 C87.47042083740234,-58.19466781616211 86.80642700195312,-61.06966781616211 85.11742401123047,-63.07666778564453z"></path></g><g opacity="1" transform="matrix(1,0,0,1,723.7260131835938,307.93499755859375)"><path fill="url(#__lottie_element_36)" fill-opacity="1" d=" M40.880001068115234,69.08399963378906 C40.880001068115234,69.08399963378906 -75.3290023803711,69.08399963378906 -75.3290023803711,69.08399963378906 C-81.39299774169922,69.08399963378906 -85.08300018310547,64.16799926757812 -83.57099914550781,58.104000091552734 C-83.57099914550781,58.104000091552734 -54.59700012207031,-58.104000091552734 -54.59700012207031,-58.104000091552734 C-53.084999084472656,-64.16799926757812 -46.944000244140625,-69.08399963378906 -40.880001068115234,-69.08399963378906 C-40.880001068115234,-69.08399963378906 75.3290023803711,-69.08399963378906 75.3290023803711,-69.08399963378906 C81.39299774169922,-69.08399963378906 85.08300018310547,-64.16799926757812 83.57099914550781,-58.104000091552734 C83.57099914550781,-58.104000091552734 54.59700012207031,58.104000091552734 54.59700012207031,58.104000091552734 C53.084999084472656,64.16799926757812 46.944000244140625,69.08399963378906 40.880001068115234,69.08399963378906z"></path></g><g opacity="1" transform="matrix(1,0,0,1,724.406005859375,309.2510070800781)"><path stroke-linecap="round" stroke-linejoin="round" fill-opacity="0" stroke="rgb(15,51,54)" stroke-opacity="1" stroke-width="2" d=" M81.125,-67.76799774169922 C82.97799682617188,-65.75399780273438 83.7239990234375,-62.76100158691406 82.89099884033203,-59.41999816894531 C82.89099884033203,-59.41999816894531 53.91699981689453,56.78799819946289 53.91699981689453,56.78799819946289 C52.404998779296875,62.85200119018555 46.263999938964844,67.76799774169922 40.20000076293945,67.76799774169922 C40.20000076293945,67.76799774169922 -76.00900268554688,67.76799774169922 -76.00900268554688,67.76799774169922 C-79.2229995727539,67.76799774169922 -81.77100372314453,66.38600158691406 -83.2300033569336,64.18499755859375"></path></g><g opacity="1" transform="matrix(1,0,0,1,0,0)"><g opacity="1" transform="matrix(1,0,0,1,732.9429931640625,278.04901123046875)"><path fill="rgb(255,255,255)" fill-opacity="1" d=" M-10.477999687194824,-14.180999755859375 C-0.7160000205039978,-21.920000076293945 11.887999534606934,-21.84600067138672 17.674999237060547,-14.013999938964844 C23.461999893188477,-6.182000160217285 20.239999771118164,6.441999912261963 10.477999687194824,14.180999755859375 C0.7160000205039978,21.920000076293945 -11.887999534606934,21.84600067138672 -17.674999237060547,14.013999938964844 C-23.461999893188477,6.182000160217285 -20.239999771118164,-6.441999912261963 -10.477999687194824,-14.180999755859375z"></path></g><g opacity="1" transform="matrix(1,0,0,1,718.6710205078125,331.5169982910156)"><path fill="rgb(255,255,255)" fill-opacity="1" d=" M-6.119999885559082,26.239999771118164 C12.99899959564209,26.354000091552734 32.41299819946289,17.05699920654297 46.527000427246094,2.7139999866485596 C42.28200149536133,-14.376999855041504 27.667999267578125,-26.118999481201172 7.321000099182129,-26.239999771118164 C-13.026000022888184,-26.361000061035156 -33.637001037597656,-14.784000396728516 -46.527000427246094,2.1610000133514404 C-39.821998596191406,16.672000885009766 -25.23900032043457,26.125999450683594 -6.119999885559082,26.239999771118164z"></path></g></g></g><g transform="matrix(1,0,0,1,-1.7603759765625,9.5068359375)" opacity="1" style="display: block;"><g opacity="1" transform="matrix(1,0,0,1,1209.387939453125,1043.802978515625)"><path fill="rgb(255,255,255)" fill-opacity="1" d=" M-211.3517608642578,-127.2301254272461 C-211.3517608642578,-127.2301254272461 121.65855407714844,-127.2301254272461 121.65855407714844,-127.2301254272461 C130.05519104003906,-127.38750457763672 135.7628173828125,-123.06031799316406 138.0498046875,-116.78319549560547 C138.0498046875,-116.78319549560547 228.50399780273438,131.79400634765625 228.50399780273438,131.79400634765625 C228.50399780273438,131.79400634765625 -141.99693298339844,131.7753448486328 -141.99693298339844,131.7753448486328 C-141.99693298339844,131.7753448486328 -227.87811279296875,-104.44933319091797 -227.87811279296875,-104.44933319091797 C-231.93211364746094,-115.58659362792969 -223.5127716064453,-127.2301254272461 -211.3517608642578,-127.2301254272461z"></path><path stroke-linecap="butt" stroke-linejoin="miter" fill-opacity="0" stroke-miterlimit="4" stroke="rgb(15,51,54)" stroke-opacity="1" stroke-width="2.2" d=" M-211.3517608642578,-127.2301254272461 C-211.3517608642578,-127.2301254272461 121.65855407714844,-127.2301254272461 121.65855407714844,-127.2301254272461 C130.05519104003906,-127.38750457763672 135.7628173828125,-123.06031799316406 138.0498046875,-116.78319549560547 C138.0498046875,-116.78319549560547 228.50399780273438,131.79400634765625 228.50399780273438,131.79400634765625 C228.50399780273438,131.79400634765625 -141.99693298339844,131.7753448486328 -141.99693298339844,131.7753448486328 C-141.99693298339844,131.7753448486328 -227.87811279296875,-104.44933319091797 -227.87811279296875,-104.44933319091797 C-231.93211364746094,-115.58659362792969 -223.5127716064453,-127.2301254272461 -211.3517608642578,-127.2301254272461z"></path></g><g opacity="1" transform="matrix(1,0,0,1,1207.6519775390625,1307.2879638671875)"><path fill="rgb(255,255,255)" fill-opacity="1" d=" M230.24000549316406,-131.79400634765625 C230.24000549316406,-131.79400634765625 -140.61300659179688,-131.79400634765625 -140.61300659179688,-131.79400634765625 C-140.61300659179688,-131.79400634765625 -229.68899536132812,119.3219985961914 -229.68899536132812,119.3219985961914 C-231.8719940185547,125.3499984741211 -227.29800415039062,131.79400634765625 -220.85400390625,131.79400634765625 C-220.85400390625,131.79400634765625 125.47000122070312,131.79400634765625 125.47000122070312,131.79400634765625 C132.2259979248047,131.79400634765625 138.25399780273438,127.53299713134766 140.54100036621094,121.08899688720703 C140.54100036621094,121.08899688720703 230.24000549316406,-131.79400634765625 230.24000549316406,-131.79400634765625z"></path></g><g opacity="1" transform="matrix(1,0,0,1,1207.5460205078125,1307.3399658203125)"><path fill="rgb(15,51,54)" fill-opacity="1" d=" M125.57599639892578,132.78199768066406 C125.57599639892578,132.78199768066406 -220.43600463867188,132.78199768066406 -220.43600463867188,132.78199768066406 C-223.97000122070312,132.78199768066406 -227.08799743652344,131.1179962158203 -229.16700744628906,128.31199645996094 C-231.24600219726562,125.50599670410156 -231.66099548339844,121.86799621582031 -230.51800537109375,118.64600372314453 C-230.51800537109375,118.64600372314453 -141.6510009765625,-132.0540008544922 -141.6510009765625,-132.0540008544922 C-141.5469970703125,-132.47000122070312 -141.13099670410156,-132.78199768066406 -140.71499633789062,-132.78199768066406 C-140.71499633789062,-132.78199768066406 230.13800048828125,-132.78199768066406 230.13800048828125,-132.78199768066406 C230.4499969482422,-132.78199768066406 230.76199340820312,-132.57400512695312 230.97000122070312,-132.36599731445312 C231.17799377441406,-132.0540008544922 231.17799377441406,-131.7429962158203 231.07400512695312,-131.43099975585938 C231.07400512695312,-131.43099975585938 141.375,121.4520034790039 141.375,121.4520034790039 C139.19200134277344,128.20799255371094 132.7480010986328,132.78199768066406 125.57599639892578,132.78199768066406z M-139.77999877929688,-130.8070068359375 C-139.77999877929688,-130.8070068359375 -228.43899536132812,119.2699966430664 -228.43899536132812,119.2699966430664 C-229.37399291992188,121.97200012207031 -228.95899963378906,124.77799987792969 -227.39999389648438,127.06500244140625 C-225.73699951171875,129.3520050048828 -223.24200439453125,130.7030029296875 -220.43600463867188,130.7030029296875 C-220.43600463867188,130.7030029296875 125.57599639892578,130.7030029296875 125.57599639892578,130.7030029296875 C131.91600036621094,130.7030029296875 137.5290069580078,126.6500015258789 139.71200561523438,120.7249984741211 C139.71200561523438,120.7249984741211 228.89100646972656,-130.7030029296875 228.89100646972656,-130.7030029296875 C228.89100646972656,-130.7030029296875 -139.77999877929688,-130.7030029296875 -139.77999877929688,-130.7030029296875 C-139.77999877929688,-130.7030029296875 -139.77999877929688,-130.8070068359375 -139.77999877929688,-130.8070068359375z"></path></g><g opacity="1" transform="matrix(1,0,0,1,1203.5689697265625,1043.7509765625)"><path fill="rgb(15,51,54)" fill-opacity="1" d=" M120.197998046875,-124.91960144042969 C120.197998046875,-124.91960144042969 -212.9250030517578,-124.91960144042969 -212.9250030517578,-124.91960144042969 C-221.24000549316406,-124.91960144042969 -227.06100463867188,-116.92125701904297 -224.2550048828125,-109.22645568847656 C-224.2550048828125,-109.22645568847656 -136.531005859375,131.74481201171875 -136.531005859375,131.74481201171875 C-136.531005859375,131.74481201171875 224.96835327148438,131.74481201171875 224.96835327148438,131.74481201171875 C224.96835327148438,131.74481201171875 135.2689971923828,-114.49168395996094 135.2689971923828,-114.49168395996094 C132.98199462890625,-120.76880645751953 126.9540023803711,-124.91960144042969 120.197998046875,-124.91960144042969z"></path></g><g opacity="1" transform="matrix(1,0,0,1,1200.7669677734375,1043.7509765625)"><path fill="url(#__lottie_element_31)" fill-opacity="1" d=" M-206.06900024414062,-116.61735534667969 C-206.06900024414062,-116.61735534667969 120.4020004272461,-116.61735534667969 120.4020004272461,-116.61735534667969 C124.55964660644531,-116.61735534667969 128.302001953125,-114.08624267578125 129.6529998779297,-110.23870086669922 C129.6529998779297,-110.23870086669922 212.28399658203125,116.45674896240234 212.28399658203125,116.45674896240234 C213.531005859375,119.89921569824219 210.93299865722656,123.44256591796875 207.1909942626953,123.44256591796875 C207.1909942626953,123.44256591796875 -123.1259994506836,123.44256591796875 -123.1259994506836,123.44256591796875 C-125.93199920654297,123.44256591796875 -128.53199768066406,121.7213363647461 -129.4669952392578,119.08904266357422 C-129.4669952392578,119.08904266357422 -212.20199584960938,-108.11302947998047 -212.20199584960938,-108.11302947998047 C-213.76100158691406,-112.26383209228516 -210.53799438476562,-116.61735534667969 -206.06900024414062,-116.61735534667969z"></path></g><g opacity="1" transform="matrix(1,0,0,1,1315.2769775390625,1307.3070068359375)"><path fill="rgb(15,51,54)" fill-opacity="1" d=" M8.489999771118164,132.81399536132812 C8.489999771118164,132.81399536132812 -113.43000030517578,132.81399536132812 -113.43000030517578,132.81399536132812 C-114.05400085449219,132.81399536132812 -114.46900177001953,132.3990020751953 -114.46900177001953,131.77499389648438 C-114.46900177001953,131.1510009765625 -114.05400085449219,130.73599243164062 -113.43000030517578,130.73599243164062 C-113.43000030517578,130.73599243164062 8.593999862670898,130.73599243164062 8.593999862670898,130.73599243164062 C14.934000015258789,130.73599243164062 20.547000885009766,126.68199920654297 22.729999542236328,120.75700378417969 C22.729999542236328,120.75700378417969 112.42900085449219,-132.12600708007812 112.42900085449219,-132.12600708007812 C112.63700103759766,-132.64599609375 113.26000213623047,-132.95700073242188 113.77999877929688,-132.74899291992188 C114.30000305175781,-132.54100036621094 114.61199951171875,-131.91799926757812 114.40399932861328,-131.3979949951172 C114.40399932861328,-131.3979949951172 24.704999923706055,121.48500061035156 24.704999923706055,121.48500061035156 C22.10700035095215,128.24099731445312 15.661999702453613,132.81399536132812 8.489999771118164,132.81399536132812z"></path></g><g opacity="1" transform="matrix(1,0,0,1,1219.66796875,1255.6300048828125)"><path fill="rgb(15,51,54)" fill-opacity="1" d=" M182.15699768066406,-70.47000122070312 C182.15699768066406,-70.47000122070312 -135.89500427246094,-70.47000122070312 -135.89500427246094,-70.47000122070312 C-138.1820068359375,-70.47000122070312 -140.156005859375,-69.01599884033203 -140.88400268554688,-66.93699645996094 C-140.88400268554688,-66.93699645996094 -187.24099731445312,63.81800079345703 -187.24099731445312,63.81800079345703 C-188.38400268554688,67.04000091552734 -185.99400329589844,70.47000122070312 -182.56399536132812,70.47000122070312 C-182.56399536132812,70.47000122070312 133.7220001220703,70.47000122070312 133.7220001220703,70.47000122070312 C137.36000061035156,70.47000122070312 140.58200073242188,68.18399810791016 141.82899475097656,64.75399780273438 C141.82899475097656,64.75399780273438 187.25,-63.40299987792969 187.25,-63.40299987792969 C188.39300537109375,-66.83300018310547 185.8990020751953,-70.47000122070312 182.15699768066406,-70.47000122070312z"></path></g><g opacity="1" transform="matrix(1,0,0,1,1165.781005859375,1381.656005859375)"><path fill="rgb(15,51,54)" fill-opacity="1" d=" M47.08399963378906,49.63100051879883 C47.08399963378906,49.63100051879883 -77.33000183105469,49.63100051879883 -77.33000183105469,49.63100051879883 C-79.61699676513672,49.63100051879883 -81.59200286865234,48.590999603271484 -82.94300079345703,46.720001220703125 C-84.29399871826172,44.8489990234375 -84.50299835205078,42.66699981689453 -83.7750015258789,40.48400115966797 C-83.7750015258789,40.48400115966797 -53.42499923706055,-45.05699920654297 -53.42499923706055,-45.05699920654297 C-52.4900016784668,-47.75899887084961 -49.88999938964844,-49.63100051879883 -46.97999954223633,-49.63100051879883 C-46.97999954223633,-49.63100051879883 77.33000183105469,-49.63100051879883 77.33000183105469,-49.63100051879883 C79.61699676513672,-49.63100051879883 81.59200286865234,-48.590999603271484 82.94300079345703,-46.720001220703125 C84.29399871826172,-44.8489990234375 84.50299835205078,-42.66699981689453 83.7750015258789,-40.48400115966797 C83.7750015258789,-40.48400115966797 53.42499923706055,45.05699920654297 53.42499923706055,45.05699920654297 C52.4900016784668,47.862998962402344 49.99399948120117,49.63100051879883 47.08399963378906,49.63100051879883z M-46.97999954223633,-47.448001861572266 C-48.95500183105469,-47.448001861572266 -50.82600021362305,-46.20100021362305 -51.45000076293945,-44.33000183105469 C-51.45000076293945,-44.33000183105469 -81.80000305175781,41.21200180053711 -81.80000305175781,41.21200180053711 C-82.31999969482422,42.66699981689453 -82.11100006103516,44.22600173950195 -81.1760025024414,45.57699966430664 C-80.24099731445312,46.82400131225586 -78.88899993896484,47.551998138427734 -77.33000183105469,47.551998138427734 C-77.33000183105469,47.551998138427734 46.97999954223633,47.551998138427734 46.97999954223633,47.551998138427734 C48.95500183105469,47.551998138427734 50.82600021362305,46.30500030517578 51.45000076293945,44.433998107910156 C51.45000076293945,44.433998107910156 81.80000305175781,-41.108001708984375 81.80000305175781,-41.108001708984375 C82.31999969482422,-42.5629997253418 82.11100006103516,-44.12200164794922 81.1760025024414,-45.472999572753906 C80.24099731445312,-46.720001220703125 78.88899993896484,-47.448001861572266 77.33000183105469,-47.448001861572266 C77.33000183105469,-47.448001861572266 -46.97999954223633,-47.448001861572266 -46.97999954223633,-47.448001861572266 C-46.97999954223633,-47.448001861572266 -46.97999954223633,-47.448001861572266 -46.97999954223633,-47.448001861572266z"></path></g><g opacity="1" transform="matrix(1,0,0,1,1233.6009521484375,1217.3809814453125)"><path fill="rgb(255,255,255)" fill-opacity="1" d=" M176.33200073242188,1.0390000343322754 C176.33200073242188,1.0390000343322754 -176.33200073242188,1.0390000343322754 -176.33200073242188,1.0390000343322754 C-176.95599365234375,1.0390000343322754 -177.37100219726562,0.6240000128746033 -177.37100219726562,0 C-177.37100219726562,-0.6240000128746033 -176.95599365234375,-1.0390000343322754 -176.33200073242188,-1.0390000343322754 C-176.33200073242188,-1.0390000343322754 -176.33200073242188,-1.0390000343322754 -176.33200073242188,-1.0390000343322754 C-176.33200073242188,-1.0390000343322754 176.33200073242188,-1.0390000343322754 176.33200073242188,-1.0390000343322754 C176.95599365234375,-1.0390000343322754 177.37100219726562,-0.6240000128746033 177.37100219726562,0 C177.37100219726562,0.6240000128746033 176.8520050048828,1.0390000343322754 176.33200073242188,1.0390000343322754z"></path></g><g opacity="1" transform="matrix(1,0,0,1,1219.7249755859375,1254.279052734375)"><path fill="rgb(255,255,255)" fill-opacity="1" d=" M171.49899291992188,1.0390000343322754 C171.49899291992188,1.0390000343322754 -171.49899291992188,1.0390000343322754 -171.49899291992188,1.0390000343322754 C-172.1230010986328,1.0390000343322754 -172.53799438476562,0.6240000128746033 -172.53799438476562,0 C-172.53799438476562,-0.6240000128746033 -172.1230010986328,-1.0390000343322754 -171.49899291992188,-1.0390000343322754 C-171.49899291992188,-1.0390000343322754 -171.49899291992188,-1.0390000343322754 -171.49899291992188,-1.0390000343322754 C-171.49899291992188,-1.0390000343322754 171.49899291992188,-1.0390000343322754 171.49899291992188,-1.0390000343322754 C172.1230010986328,-1.0390000343322754 172.53799438476562,-0.6240000128746033 172.53799438476562,0 C172.53799438476562,0.6240000128746033 172.0189971923828,1.0390000343322754 171.49899291992188,1.0390000343322754z"></path></g><g opacity="1" transform="matrix(1,0,0,1,1204.446044921875,1291.177001953125)"><path fill="rgb(255,255,255)" fill-opacity="1" d=" M168.06900024414062,1.0390000343322754 C168.06900024414062,1.0390000343322754 -168.06900024414062,1.0390000343322754 -168.06900024414062,1.0390000343322754 C-168.6929931640625,1.0390000343322754 -169.10800170898438,0.6240000128746033 -169.10800170898438,0 C-169.10800170898438,-0.6240000128746033 -168.6929931640625,-1.0390000343322754 -168.06900024414062,-1.0390000343322754 C-168.06900024414062,-1.0390000343322754 168.06900024414062,-1.0390000343322754 168.06900024414062,-1.0390000343322754 C168.6929931640625,-1.0390000343322754 169.10800170898438,-0.6240000128746033 169.10800170898438,0 C169.10800170898438,0.6240000128746033 168.58900451660156,1.0390000343322754 168.06900024414062,1.0390000343322754z"></path></g><g opacity="1" transform="matrix(1,0,0,1,1304.5909423828125,1253.31103515625)"><path fill="rgb(255,255,255)" fill-opacity="1" d=" M-25.30900001525879,74.3489990234375 C-25.413000106811523,74.3489990234375 -25.517000198364258,74.3489990234375 -25.621000289916992,74.24500274658203 C-26.141000747680664,74.03700256347656 -26.452999114990234,73.51799774169922 -26.2450008392334,72.89399719238281 C-26.2450008392334,72.89399719238281 24.270000457763672,-73.66000366210938 24.270000457763672,-73.66000366210938 C24.47800064086914,-74.18000030517578 24.996999740600586,-74.49199676513672 25.621000289916992,-74.28399658203125 C26.141000747680664,-74.07599639892578 26.452999114990234,-73.55599975585938 26.2450008392334,-72.93199920654297 C26.2450008392334,-72.93199920654297 -24.270000457763672,73.62100219726562 -24.270000457763672,73.62100219726562 C-24.47800064086914,74.14099884033203 -24.89299964904785,74.3489990234375 -25.30900001525879,74.3489990234375z"></path></g><g opacity="1" transform="matrix(1,0,0,1,1268.0560302734375,1236.8370361328125)"><path fill="rgb(255,255,255)" fill-opacity="1" d=" M-18.708999633789062,54.9640007019043 C-18.812999725341797,54.9640007019043 -18.91699981689453,54.9640007019043 -19.020999908447266,54.86000061035156 C-19.541000366210938,54.652000427246094 -19.851999282836914,54.02899932861328 -19.643999099731445,53.50899887084961 C-19.643999099731445,53.50899887084961 17.670000076293945,-54.275001525878906 17.670000076293945,-54.275001525878906 C17.878000259399414,-54.79499816894531 18.39699935913086,-55.106998443603516 19.020999908447266,-54.89899826049805 C19.541000366210938,-54.691001892089844 19.851999282836914,-54.06800079345703 19.643999099731445,-53.54800033569336 C19.643999099731445,-53.54800033569336 -17.670000076293945,54.23699951171875 -17.670000076293945,54.23699951171875 C-17.878000259399414,54.65299987792969 -18.292999267578125,54.9640007019043 -18.708999633789062,54.9640007019043z"></path></g><g opacity="1" transform="matrix(1,0,0,1,1226.48095703125,1234.9659423828125)"><path fill="rgb(255,255,255)" fill-opacity="1" d=" M-19.540000915527344,57.042999267578125 C-19.643999099731445,57.042999267578125 -19.74799919128418,57.042999267578125 -19.851999282836914,56.93899917602539 C-20.371999740600586,56.73099899291992 -20.68400001525879,56.108001708984375 -20.47599983215332,55.5880012512207 C-20.47599983215332,55.5880012512207 18.500999450683594,-56.354000091552734 18.500999450683594,-56.354000091552734 C18.708999633789062,-56.874000549316406 19.332000732421875,-57.18600082397461 19.851999282836914,-56.97800064086914 C20.371999740600586,-56.77000045776367 20.68400001525879,-56.14699935913086 20.47599983215332,-55.62699890136719 C20.47599983215332,-55.62699890136719 -18.604999542236328,56.41899871826172 -18.604999542236328,56.41899871826172 C-18.708999633789062,56.834999084472656 -19.124000549316406,57.042999267578125 -19.540000915527344,57.042999267578125z"></path></g><g opacity="1" transform="matrix(1,0,0,1,1183.657958984375,1236.6810302734375)"><path fill="rgb(255,255,255)" fill-opacity="1" d=" M-19.020999908447266,55.119998931884766 C-19.125,55.119998931884766 -19.229000091552734,55.119998931884766 -19.33300018310547,55.01599884033203 C-19.85300064086914,54.80799865722656 -20.163999557495117,54.185001373291016 -19.95599937438965,53.665000915527344 C-19.95599937438965,53.665000915527344 17.981000900268555,-54.430999755859375 17.981000900268555,-54.430999755859375 C18.18899917602539,-54.95100021362305 18.812999725341797,-55.26300048828125 19.33300018310547,-55.05500030517578 C19.85300064086914,-54.84700012207031 20.163999557495117,-54.2239990234375 19.95599937438965,-53.70399856567383 C19.95599937438965,-53.70399856567383 -17.981000900268555,54.393001556396484 -17.981000900268555,54.393001556396484 C-18.18899917602539,54.808998107910156 -18.500999450683594,55.119998931884766 -19.020999908447266,55.119998931884766z"></path></g><g opacity="1" transform="matrix(1,0,0,1,1141.718994140625,1235.9010009765625)"><path fill="rgb(255,255,255)" fill-opacity="1" d=" M-19.385000228881836,55.900001525878906 C-19.48900032043457,55.900001525878906 -19.591999053955078,55.900001525878906 -19.695999145507812,55.79600143432617 C-20.215999603271484,55.5880012512207 -20.527999877929688,54.9640007019043 -20.31999969482422,54.444000244140625 C-20.31999969482422,54.444000244140625 18.344999313354492,-55.21099853515625 18.344999313354492,-55.21099853515625 C18.55299949645996,-55.73099899291992 19.176000595092773,-56.042999267578125 19.695999145507812,-55.834999084472656 C20.215999603271484,-55.62699890136719 20.527999877929688,-55.00299835205078 20.31999969482422,-54.483001708984375 C20.31999969482422,-54.483001708984375 -18.344999313354492,55.172000885009766 -18.344999313354492,55.172000885009766 C-18.55299949645996,55.5880012512207 -18.9689998626709,55.900001525878906 -19.385000228881836,55.900001525878906z"></path></g><g opacity="1" transform="matrix(1,0,0,1,1105.2359619140625,1219.68701171875)"><path fill="rgb(255,255,255)" fill-opacity="1" d=" M-12.317000389099121,35.63199996948242 C-12.420999526977539,35.63199996948242 -12.524999618530273,35.63199996948242 -12.628999710083008,35.52799987792969 C-13.14900016784668,35.31999969482422 -13.460000038146973,34.69599914550781 -13.251999855041504,34.17599868774414 C-13.251999855041504,34.17599868774414 11.277000427246094,-34.94300079345703 11.277000427246094,-34.94300079345703 C11.484999656677246,-35.4630012512207 12.109000205993652,-35.77399826049805 12.628999710083008,-35.566001892089844 C13.14900016784668,-35.358001708984375 13.460000038146973,-34.73500061035156 13.251999855041504,-34.21500015258789 C13.251999855041504,-34.21500015258789 -11.277000427246094,34.90399932861328 -11.277000427246094,34.90399932861328 C-11.484999656677246,35.31999969482422 -11.901000022888184,35.63199996948242 -12.317000389099121,35.63199996948242z"></path></g><g opacity="1" transform="matrix(1,0,0,1,1055.553955078125,1359.6920166015625)"><path fill="rgb(255,255,255)" fill-opacity="1" d=" M-24.374000549316406,69.7229995727539 C-24.47800064086914,69.7229995727539 -24.58099937438965,69.7239990234375 -24.684999465942383,69.62000274658203 C-25.204999923706055,69.41200256347656 -25.517000198364258,68.78800201416016 -25.30900001525879,68.26799774169922 C-25.30900001525879,68.26799774169922 23.333999633789062,-69.03500366210938 23.333999633789062,-69.03500366210938 C23.54199981689453,-69.55500030517578 24.165000915527344,-69.86599731445312 24.684999465942383,-69.65799713134766 C25.204999923706055,-69.44999694824219 25.517000198364258,-68.8270034790039 25.30900001525879,-68.30699920654297 C25.30900001525879,-68.30699920654297 -23.333999633789062,68.99600219726562 -23.333999633789062,68.99600219726562 C-23.54199981689453,69.51599884033203 -23.95800018310547,69.7229995727539 -24.374000549316406,69.7229995727539z"></path></g><g opacity="1" transform="matrix(1,0,0,1,1352.9219970703125,1235.7969970703125)"><path fill="rgb(255,255,255)" fill-opacity="1" d=" M-6.392000198364258,19.520999908447266 C-6.495999813079834,19.520999908447266 -6.599999904632568,19.520999908447266 -6.703999996185303,19.41699981689453 C-7.223999977111816,19.208999633789062 -7.535999774932861,18.690000534057617 -7.328000068664551,18.06599998474121 C-7.328000068664551,18.06599998474121 5.353000164031982,-18.832000732421875 5.353000164031982,-18.832000732421875 C5.560999870300293,-19.351999282836914 6.079999923706055,-19.663999557495117 6.703999996185303,-19.45599937438965 C7.223999977111816,-19.24799919128418 7.535999774932861,-18.729000091552734 7.328000068664551,-18.104999542236328 C7.328000068664551,-18.104999542236328 -5.353000164031982,18.792999267578125 -5.353000164031982,18.792999267578125 C-5.560999870300293,19.208999633789062 -5.97599983215332,19.520999908447266 -6.392000198364258,19.520999908447266z"></path></g><g opacity="1" transform="matrix(1,0,0,1,1327.97705078125,1308.501953125)"><path fill="rgb(255,255,255)" fill-opacity="1" d=" M-6.079999923706055,18.63800048828125 C-6.184000015258789,18.63800048828125 -6.288000106811523,18.63800048828125 -6.392000198364258,18.534000396728516 C-6.9120001792907715,18.326000213623047 -7.223999977111816,17.805999755859375 -7.015999794006348,17.18199920654297 C-7.015999794006348,17.18199920654297 5.040999889373779,-17.948999404907227 5.040999889373779,-17.948999404907227 C5.249000072479248,-18.4689998626709 5.76800012588501,-18.780000686645508 6.392000198364258,-18.57200050354004 C6.9120001792907715,-18.36400032043457 7.223999977111816,-17.844999313354492 7.015999794006348,-17.22100067138672 C7.015999794006348,-17.22100067138672 -5.040999889373779,17.90999984741211 -5.040999889373779,17.90999984741211 C-5.249000072479248,18.326000213623047 -5.664000034332275,18.63800048828125 -6.079999923706055,18.63800048828125z"></path></g></g><g transform="matrix(1,0,0,1,-3.79644775390625,6.0631103515625)" opacity="1" style="display: block;"><g opacity="1" transform="matrix(1,0,0,1,585.9199829101562,1236.6319580078125)"><path fill="url(#__lottie_element_26)" fill-opacity="1" d=" M108.61817169189453,-78.80906677246094 C108.61817169189453,-78.80906677246094 108.62916564941406,-78.82406616210938 108.62916564941406,-78.82406616210938 C108.62916564941406,-78.82406616210938 94.9530029296875,-94.58899688720703 94.9530029296875,-94.58899688720703 C94.9530029296875,-94.58899688720703 -112.52200317382812,73.76300048828125 -112.52200317382812,73.76300048828125 C-112.52200317382812,73.76300048828125 -99.579833984375,88.65692901611328 -99.579833984375,88.65692901611328 C-99.579833984375,88.65692901611328 -99.57783508300781,88.65193176269531 -99.57783508300781,88.65193176269531 C-97.68183135986328,91.12393188476562 -94.62083435058594,92.6529312133789 -90.81783294677734,92.6529312133789 C-90.81783294677734,92.6529312133789 56.47816848754883,92.6529312133789 56.47816848754883,92.6529312133789 C64.16416931152344,92.6529312133789 71.94816589355469,86.42192840576172 73.86416625976562,78.73593139648438 C73.86416625976562,78.73593139648438 110.58916473388672,-68.56006622314453 110.58916473388672,-68.56006622314453 C111.60216522216797,-72.6210708618164 110.75917053222656,-76.26506805419922 108.61817169189453,-78.80906677246094z"></path></g><g opacity="1" transform="matrix(1,0,0,1,577.1810302734375,1226.2750244140625)"><path fill="url(#__lottie_element_27)" fill-opacity="1" d=" M51.816001892089844,87.56400299072266 C51.816001892089844,87.56400299072266 -95.4800033569336,87.56400299072266 -95.4800033569336,87.56400299072266 C-103.16600036621094,87.56400299072266 -107.84300231933594,81.33399963378906 -105.927001953125,73.64800262451172 C-105.927001953125,73.64800262451172 -69.2020034790039,-73.64800262451172 -69.2020034790039,-73.64800262451172 C-67.28600311279297,-81.33399963378906 -59.50199890136719,-87.56400299072266 -51.816001892089844,-87.56400299072266 C-51.816001892089844,-87.56400299072266 95.4800033569336,-87.56400299072266 95.4800033569336,-87.56400299072266 C103.16600036621094,-87.56400299072266 107.84300231933594,-81.33399963378906 105.927001953125,-73.64800262451172 C105.927001953125,-73.64800262451172 69.2020034790039,73.64800262451172 69.2020034790039,73.64800262451172 C67.28600311279297,81.33399963378906 59.50199890136719,87.56400299072266 51.816001892089844,87.56400299072266z"></path></g><g opacity="1" transform="matrix(1,0,0,1,578.0430297851562,1227.9429931640625)"><path stroke-linecap="round" stroke-linejoin="round" fill-opacity="0" stroke="rgb(15,51,54)" stroke-opacity="1" stroke-width="2" d=" M102.8270034790039,-85.89600372314453 C105.17500305175781,-83.34400177001953 106.12100219726562,-79.5510025024414 105.06500244140625,-75.31600189208984 C105.06500244140625,-75.31600189208984 68.33999633789062,71.9800033569336 68.33999633789062,71.9800033569336 C66.42400360107422,79.66600036621094 58.63999938964844,85.89600372314453 50.95399856567383,85.89600372314453 C50.95399856567383,85.89600372314453 -96.34200286865234,85.89600372314453 -96.34200286865234,85.89600372314453 C-100.41600036621094,85.89600372314453 -103.6449966430664,84.1449966430664 -105.49400329589844,81.3550033569336"></path></g><g opacity="1" transform="matrix(1,0,0,1,0,0)"><g opacity="1" transform="matrix(1,0,0,1,581.3989868164062,1192.7840576171875)"><path fill="rgb(255,255,255)" fill-opacity="1" d=" M33.68199920654297,34.7140007019043 C33.68199920654297,34.7140007019043 -42.77199935913086,34.698001861572266 -42.77199935913086,34.698001861572266 C-42.77199935913086,34.698001861572266 -34.84000015258789,2.88700008392334 -34.84000015258789,2.88700008392334 C-29.68400001525879,-17.79400062561035 -8.368000030517578,-34.6619987487793 12.706999778747559,-34.7140007019043 C33.816001892089844,-34.76599884033203 46.808998107910156,-17.933000564575195 41.637001037597656,2.809000015258789 C41.637001037597656,2.809000015258789 33.68199920654297,34.7140007019043 33.68199920654297,34.7140007019043z M-26.722000122070312,22.018999099731445 C-26.722000122070312,22.018999099731445 23.89900016784668,22.0049991607666 23.89900016784668,22.0049991607666 C23.89900016784668,22.0049991607666 28.68199920654297,2.822000026702881 28.68199920654297,2.822000026702881 C32.104000091552734,-10.904000282287598 23.51099967956543,-22.04800033569336 9.541999816894531,-22.020000457763672 C-4.413000106811523,-21.992000579833984 -18.533000946044922,-10.824999809265137 -21.948999404907227,2.874000072479248 C-21.948999404907227,2.874000072479248 -26.722000122070312,22.018999099731445 -26.722000122070312,22.018999099731445z"></path></g><g opacity="1" transform="matrix(1,0,0,1,575.9639892578125,1251.4830322265625)"><path fill="rgb(255,255,255)" fill-opacity="1" d=" M52.8390007019043,-42.99700164794922 C52.8390007019043,-42.99700164794922 -41.56399917602539,-42.922000885009766 -41.56399917602539,-42.922000885009766 C-45.125999450683594,-42.91899871826172 -48.731998443603516,-40.03200149536133 -49.619998931884766,-36.470001220703125 C-49.619998931884766,-36.470001220703125 -56.28900146484375,-9.722999572753906 -56.28900146484375,-9.722999572753906 C-63.534000396728516,19.336000442504883 -45.465999603271484,42.939998626708984 -15.881999969482422,42.99700164794922 C-15.881999969482422,42.99700164794922 -15.881999969482422,42.99700164794922 -15.881999969482422,42.99700164794922 C13.758999824523926,43.05400085449219 43.722999572753906,19.461999893188477 50.99399948120117,-9.699000358581543 C50.99399948120117,-9.699000358581543 57.6879997253418,-36.54499816894531 57.6879997253418,-36.54499816894531 C58.57699966430664,-40.11000061035156 56.404998779296875,-43 52.8390007019043,-42.99700164794922z M0.828000009059906,16.297000885009766 C0.828000009059906,16.297000885009766 -19.249000549316406,16.273000717163086 -19.249000549316406,16.273000717163086 C-19.249000549316406,16.273000717163086 -10.461999893188477,-1.2920000553131104 -10.461999893188477,-1.2920000553131104 C-13.029999732971191,-3.1470000743865967 -14.232000350952148,-6.440000057220459 -13.293000221252441,-10.204000473022461 C-11.847999572753906,-16.00200080871582 -5.89300012588501,-20.702999114990234 0.008999999612569809,-20.70400047302246 C5.913000106811523,-20.704999923706055 9.527999877929688,-16.00200080871582 8.081000328063965,-10.199999809265137 C7.142000198364258,-6.432000160217285 4.295000076293945,-3.138000011444092 0.800000011920929,-1.2860000133514404 C0.800000011920929,-1.2860000133514404 0.828000009059906,16.297000885009766 0.828000009059906,16.297000885009766z"></path></g></g></g><g transform="matrix(1,0,0,1,-2,0)" opacity="0.7000000000000001" style="display: block;"><g opacity="1" transform="matrix(1,0,0,1,645.4140014648438,775.0120239257812)"><path fill="rgb(255,255,255)" fill-opacity="1" d=" M15.244000434875488,0 C13.97700023651123,5.081999778747559 10.42300033569336,9.553000450134277 5.927999973297119,12.29699993133545 C2.9820001125335693,14.12600040435791 -0.44699999690055847,15.244999885559082 -3.8010001182556152,15.244999885559082 C-12.236000061035156,15.244999885559082 -17.347999572753906,8.4350004196167 -15.244999885559082,0 C-13.142000198364258,-8.4350004196167 -4.633999824523926,-15.244999885559082 3.8010001182556152,-15.244999885559082 C5.630000114440918,-15.244999885559082 7.320000171661377,-14.888999938964844 8.793999671936035,-14.279000282287598 C14.118000030517578,-12.196000099182129 16.891000747680664,-6.605999946594238 15.244000434875488,0z"></path></g></g><g transform="matrix(1,0,0,1,-2,0)" opacity="0.7000000000000001" style="display: block;"><g opacity="1" transform="matrix(1,0,0,1,655.9320068359375,732.3489990234375)"><path fill="rgb(255,255,255)" fill-opacity="1" d=" M45.43000030517578,1.5410000085830688 C45.43000030517578,1.5410000085830688 25.496999740600586,17.496000289916992 25.496999740600586,17.496000289916992 C24.80699920654297,18.04800033569336 23.924999237060547,18.06999969482422 23.451000213623047,17.56999969482422 C19.167999267578125,13.052000045776367 13.637999534606934,10.098999977111816 7.460000038146973,8.668000221252441 C-4.603000164031982,5.765999794006348 -19.184999465942383,8.767000198364258 -31.979000091552734,17.57699966430664 C-32.70100021362305,18.073999404907227 -33.56800079345703,18.049999237060547 -33.98099899291992,17.5 C-33.98099899291992,17.5 -45.95899963378906,1.5440000295639038 -45.95899963378906,1.5440000295639038 C-46.4119987487793,0.9409999847412109 -46.145999908447266,-0.05400000140070915 -45.367000579833984,-0.6200000047683716 C-21.628999710083008,-17.886999130249023 6.3379998207092285,-22.257999420166016 27.402999877929688,-13.640000343322754 C34.50400161743164,-10.76200008392334 40.834999084472656,-6.435999870300293 45.917999267578125,-0.6179999709129333 C46.4119987487793,-0.052000001072883606 46.18199920654297,0.9390000104904175 45.43000030517578,1.5410000085830688z"></path></g></g><g transform="matrix(1,0,0,1,-2,0)" opacity="0.7000000000000001" style="display: block;"><g opacity="1" transform="matrix(1,0,0,1,664.0360107421875,693.1240234375)"><path fill="rgb(255,255,255)" fill-opacity="1" d=" M77.96099853515625,8.241000175476074 C77.96099853515625,8.241000175476074 58.0099983215332,24.211000442504883 58.0099983215332,24.211000442504883 C57.30099868774414,24.77899932861328 56.387001037597656,24.788000106811523 55.93299865722656,24.243000030517578 C51.847999572753906,19.34600067138672 47.082000732421875,15.25100040435791 41.81399917602539,11.914999961853027 C13.527000427246094,-6.105999946594238 -29.26099967956543,-1.9609999656677246 -64.43499755859375,24.253000259399414 C-65.16000366210938,24.792999267578125 -66.06300354003906,24.781999588012695 -66.48799896240234,24.215999603271484 C-66.48799896240234,24.215999603271484 -78.49099731445312,8.22700023651123 -78.49099731445312,8.22700023651123 C-78.93800354003906,7.631999969482422 -78.68299865722656,6.6539998054504395 -77.92400360107422,6.079999923706055 C-23.80299949645996,-34.888999938964844 44.7130012512207,-34.891998291015625 78.43599700927734,6.071000099182129 C78.43900299072266,6.074999809265137 78.44200134277344,6.078000068664551 78.44499969482422,6.081999778747559 C78.94599914550781,6.644000053405762 78.71399688720703,7.638000011444092 77.96099853515625,8.241000175476074z"></path></g></g><g transform="matrix(1,0,0,1,-2,0)" opacity="0.7000000000000001" style="display: block;"><g opacity="1" transform="matrix(1,0,0,1,672.1439819335938,653.8980102539062)"><path fill="rgb(255,255,255)" fill-opacity="1" d=" M-110.97899627685547,14.961999893188477 C-110.97899627685547,14.961999893188477 -99.01699829101562,30.902999877929688 -99.01699829101562,30.902999877929688 C-98.58899688720703,31.474000930786133 -97.67400360107422,31.481000900268555 -96.9489974975586,30.927000045776367 C-32.78499984741211,-18.086000442504883 48.73699951171875,-18.086000442504883 88.46099853515625,30.927000045776367 C88.91000366210938,31.481000900268555 89.8270034790039,31.474000930786133 90.54000091552734,30.902999877929688 C90.54000091552734,30.902999877929688 110.45099639892578,14.961999893188477 110.45099639892578,14.961999893188477 C111.19000244140625,14.369999885559082 111.4229965209961,13.402000427246094 110.96099853515625,12.824999809265137 C63.757999420166016,-46.05699920654297 -33.85900115966797,-46.05699920654297 -110.42400360107422,12.824999809265137 C-111.17400360107422,13.402000427246094 -111.4229965209961,14.369999885559082 -110.97899627685547,14.961999893188477z"></path></g></g></g></g></svg>